<svg width="111" height="23" viewBox="0 0 111 23" fill="none" xmlns="http://www.w3.org/2000/svg">
<path d="M5.51464 5.61701C7.60474 5.61701 9.16963 6.09398 10.2093 7.04792C11.249 7.99115 11.7689 9.36847 11.7689 11.1799C11.7689 12.3482 11.5116 13.3718 10.9971 14.2507C10.4934 15.1189 9.75915 15.7942 8.79449 16.2765C7.84054 16.7588 6.69903 17 5.36994 17L4.37313 16.9839C3.75146 16.9625 3.30128 16.9518 3.0226 16.9518C1.9186 16.9518 1.09328 16.9678 0.546641 17V16.6784C0.900349 16.657 1.15759 16.6141 1.31837 16.5498C1.48986 16.4855 1.60241 16.3623 1.656 16.18C1.72031 15.9978 1.75247 15.7031 1.75247 15.2958V7.32124C1.75247 6.91394 1.72031 6.61918 1.656 6.43697C1.60241 6.25476 1.48986 6.1315 1.31837 6.06718C1.15759 6.00287 0.900349 5.96 0.546641 5.93856V5.61701C0.996816 5.64917 1.64528 5.66524 2.49204 5.66524H2.99045L3.63355 5.64917C4.51247 5.62773 5.1395 5.61701 5.51464 5.61701ZM5.49856 5.90641C5.16629 5.90641 4.91441 5.94392 4.74291 6.01895C4.58214 6.09398 4.46959 6.22796 4.40528 6.42089C4.34097 6.61382 4.30882 6.90322 4.30882 7.28909V15.3279C4.30882 15.7138 4.34097 16.0032 4.40528 16.1961C4.46959 16.389 4.58214 16.523 4.74291 16.5981C4.91441 16.6731 5.17165 16.7106 5.51464 16.7106C6.81157 16.7106 7.73336 16.2604 8.28 15.3601C8.82664 14.449 9.09996 13.077 9.09996 11.2442C9.09996 9.41134 8.81592 8.06617 8.24784 7.2087C7.69049 6.3405 6.77406 5.90641 5.49856 5.90641ZM21.3122 5.93856C20.9478 5.96 20.6852 6.00287 20.5244 6.06718C20.3636 6.1315 20.2511 6.25476 20.1868 6.43697C20.1332 6.61918 20.1064 6.91394 20.1064 7.32124V15.2958C20.1064 15.7031 20.1332 15.9978 20.1868 16.18C20.2511 16.3623 20.3636 16.4855 20.5244 16.5498C20.6852 16.6141 20.9478 16.657 21.3122 16.6784V17C20.7334 16.9678 19.9242 16.9518 18.8845 16.9518C17.7376 16.9518 16.8908 16.9678 16.3442 17V16.6784C16.6979 16.657 16.9552 16.6141 17.1159 16.5498C17.2874 16.4855 17.4 16.3623 17.4536 16.18C17.5179 15.9978 17.55 15.7031 17.55 15.2958V7.32124C17.55 6.91394 17.5179 6.61918 17.4536 6.43697C17.4 6.25476 17.2874 6.1315 17.1159 6.06718C16.9552 6.00287 16.6979 5.96 16.3442 5.93856V5.61701C16.8908 5.64917 17.7376 5.66524 18.8845 5.66524C19.9242 5.66524 20.7334 5.64917 21.3122 5.61701V5.93856ZM31.6849 5.39192C32.3495 5.39192 32.9068 5.48303 33.357 5.66524C33.8179 5.84746 34.2681 6.1047 34.7075 6.43697C34.8362 6.53344 34.9433 6.58167 35.0291 6.58167C35.1363 6.58167 35.222 6.50664 35.2863 6.35658C35.3506 6.19581 35.3989 5.94928 35.431 5.61701H35.8008C35.758 6.34586 35.7365 7.6428 35.7365 9.50781H35.3667C35.281 8.77895 35.1524 8.18944 34.9809 7.73926C34.8201 7.28909 34.5468 6.90858 34.1609 6.59775C33.9037 6.35122 33.5875 6.15829 33.2123 6.01895C32.8372 5.87961 32.4513 5.80994 32.0547 5.80994C31.3044 5.80994 30.6774 6.06718 30.1736 6.58167C29.6806 7.08544 29.3162 7.75534 29.0804 8.59138C28.8446 9.42742 28.7266 10.3438 28.7266 11.3407C28.7266 15.0492 29.7556 16.9035 31.8136 16.9035C32.2852 16.9035 32.6657 16.7963 32.9551 16.582C33.0944 16.4855 33.1909 16.373 33.2445 16.2443C33.3088 16.1157 33.3409 15.9496 33.3409 15.7459V14.1703C33.3409 13.6666 33.2981 13.3021 33.2123 13.077C33.1266 12.8412 32.9712 12.6805 32.7461 12.5947C32.5317 12.509 32.1887 12.4554 31.7171 12.4339V12.1124C32.3816 12.1445 33.2981 12.1606 34.4664 12.1606C35.4203 12.1606 36.1385 12.1445 36.6208 12.1124V12.4339C36.4064 12.4554 36.251 12.4983 36.1545 12.5626C36.0581 12.6269 35.9884 12.7501 35.9455 12.9323C35.9134 13.1146 35.8973 13.4093 35.8973 13.8166V17H35.5757C35.565 16.7749 35.5168 16.5659 35.431 16.373C35.356 16.18 35.2488 16.0836 35.1095 16.0836C34.9273 16.0836 34.6379 16.1961 34.2413 16.4212C33.3088 16.9571 32.4299 17.2251 31.6046 17.2251C29.7503 17.2251 28.3301 16.7213 27.344 15.7138C26.3579 14.6955 25.8648 13.27 25.8648 11.4371C25.8648 10.2367 26.1113 9.18089 26.6044 8.26982C27.1082 7.35876 27.7995 6.65134 28.6784 6.14757C29.5573 5.64381 30.5595 5.39192 31.6849 5.39192ZM45.9676 5.93856C45.6031 5.96 45.3405 6.00287 45.1798 6.06718C45.019 6.1315 44.9064 6.25476 44.8421 6.43697C44.7885 6.61918 44.7617 6.91394 44.7617 7.32124V15.2958C44.7617 15.7031 44.7885 15.9978 44.8421 16.18C44.9064 16.3623 45.019 16.4855 45.1798 16.5498C45.3405 16.6141 45.6031 16.657 45.9676 16.6784V17C45.3888 16.9678 44.5795 16.9518 43.5398 16.9518C42.393 16.9518 41.5462 16.9678 40.9996 17V16.6784C41.3533 16.657 41.6105 16.6141 41.7713 16.5498C41.9428 16.4855 42.0553 16.3623 42.1089 16.18C42.1732 15.9978 42.2054 15.7031 42.2054 15.2958V7.32124C42.2054 6.91394 42.1732 6.61918 42.1089 6.43697C42.0553 6.25476 41.9428 6.1315 41.7713 6.06718C41.6105 6.00287 41.3533 5.96 40.9996 5.93856V5.61701C41.5462 5.64917 42.393 5.66524 43.5398 5.66524C44.5795 5.66524 45.3888 5.64917 45.9676 5.61701V5.93856ZM60.2763 5.61701C60.2013 6.63526 60.1638 7.54633 60.1638 8.35021C60.1638 8.85398 60.1798 9.26128 60.212 9.57212H59.8422C59.585 8.25375 59.2313 7.3266 58.7811 6.79068C58.3416 6.25476 57.736 5.9868 56.9643 5.9868H56.5945V15.1671C56.5945 15.6173 56.6374 15.9442 56.7231 16.1479C56.8196 16.3515 56.9804 16.4909 57.2055 16.5659C57.4413 16.6302 57.8111 16.6677 58.3148 16.6784V17C56.9643 16.9678 55.9461 16.9518 55.2601 16.9518C54.5848 16.9518 53.6041 16.9678 52.3179 17V16.6784C52.8216 16.6677 53.1861 16.6302 53.4111 16.5659C53.647 16.4909 53.8077 16.3515 53.8935 16.1479C53.9899 15.9442 54.0382 15.6173 54.0382 15.1671V5.9868H53.6845C53.17 5.9868 52.7305 6.09934 52.3661 6.32443C52.0124 6.54951 51.7069 6.92466 51.4497 7.44986C51.1924 7.96435 50.9727 8.67177 50.7905 9.57212H50.4207C50.4529 9.26128 50.4689 8.85398 50.4689 8.35021C50.4689 7.54633 50.4314 6.63526 50.3564 5.61701C51.3318 5.64917 52.9878 5.66524 55.3244 5.66524C57.661 5.66524 59.3117 5.64917 60.2763 5.61701ZM73.0476 15.6495C73.187 16.0032 73.3478 16.2604 73.53 16.4212C73.7122 16.582 73.889 16.6677 74.0605 16.6784V17C73.4174 16.9678 72.6028 16.9518 71.6167 16.9518C70.5234 16.9518 69.7088 16.9678 69.1729 17V16.6784C69.5802 16.657 69.8696 16.6088 70.0411 16.5337C70.2126 16.448 70.2984 16.3033 70.2984 16.0997C70.2984 15.9067 70.234 15.6495 70.1054 15.3279L69.1408 12.6912H65.6358L65.2178 13.8005C64.9177 14.5723 64.7676 15.1671 64.7676 15.5852C64.7676 15.9817 64.8855 16.2604 65.1213 16.4212C65.3679 16.5713 65.7269 16.657 66.1985 16.6784V17C65.4697 16.9678 64.8051 16.9518 64.2049 16.9518C63.7119 16.9518 63.3046 16.9678 62.983 17V16.6784C63.5082 16.582 63.9691 16.0193 64.3657 14.9903L68.0314 5.58485C68.1493 5.59557 68.3369 5.60093 68.5941 5.60093C68.8514 5.60093 69.0336 5.59557 69.1408 5.58485L73.0476 15.6495ZM69.0282 12.3696L67.4365 8.02866L65.7645 12.3696H69.0282ZM82.7016 5.93856C82.3158 5.96 82.0317 6.00287 81.8495 6.06718C81.678 6.1315 81.5601 6.25476 81.4958 6.43697C81.4315 6.61918 81.3994 6.91394 81.3994 7.32124V15.4887C81.3994 15.8317 81.4261 16.0836 81.4797 16.2443C81.5333 16.3944 81.6244 16.4962 81.7531 16.5498C81.8924 16.6034 82.1121 16.6302 82.4122 16.6302H83.2001C83.9289 16.6302 84.5559 16.3033 85.0811 15.6495C85.6171 14.9957 85.9654 14.1275 86.1262 13.0449H86.496C86.4638 13.4093 86.4477 13.8809 86.4477 14.4597C86.4477 15.4887 86.4853 16.3355 86.5603 17C85.8314 16.9678 84.6042 16.9518 82.8785 16.9518C80.5419 16.9518 78.7948 16.9678 77.6372 17V16.6784C77.9909 16.657 78.2481 16.6141 78.4089 16.5498C78.5804 16.4855 78.6929 16.3623 78.7465 16.18C78.8108 15.9978 78.843 15.7031 78.843 15.2958V7.32124C78.843 6.91394 78.8108 6.61918 78.7465 6.43697C78.6929 6.25476 78.5804 6.1315 78.4089 6.06718C78.2481 6.00287 77.9909 5.96 77.6372 5.93856V5.61701C78.1838 5.64917 79.0306 5.66524 80.1775 5.66524C81.2707 5.66524 82.1121 5.64917 82.7016 5.61701V5.93856Z" fill="#020060"/>
<path d="M92.7635 11.4693C92.5706 11.48 92.4286 11.5014 92.3374 11.5336C92.2517 11.5657 92.1927 11.6274 92.1606 11.7185C92.1284 11.8096 92.1124 11.957 92.1124 12.1606V16.1479C92.1124 16.3515 92.1284 16.4989 92.1606 16.59C92.1927 16.6811 92.2517 16.7428 92.3374 16.7749C92.4286 16.8017 92.5706 16.8151 92.7635 16.8151H93.3503C93.6826 16.8151 93.9345 16.7696 94.106 16.6784C94.2828 16.582 94.4115 16.4292 94.4919 16.2202C94.5722 16.0112 94.6312 15.7084 94.6687 15.3118H94.8536C94.8375 15.478 94.8295 15.6977 94.8295 15.971C94.8295 16.2765 94.8482 16.6195 94.8858 17C94.5213 16.9839 93.9077 16.9759 93.0449 16.9759C92.0159 16.9759 91.2388 16.9839 90.7136 17V16.8392C90.9065 16.8285 91.0459 16.8071 91.1316 16.7749C91.2227 16.7428 91.2844 16.6811 91.3165 16.59C91.3487 16.4989 91.3647 16.3515 91.3647 16.1479V12.1606C91.3647 11.957 91.3487 11.8096 91.3165 11.7185C91.2844 11.6274 91.2227 11.5657 91.1316 11.5336C91.0459 11.5014 90.9065 11.48 90.7136 11.4693V11.3085C90.9387 11.3246 91.2817 11.3326 91.7426 11.3326C92.1713 11.3326 92.5116 11.3246 92.7635 11.3085V11.4693ZM100.367 11.4693C100.18 11.48 100.04 11.5095 99.9493 11.5577C99.8582 11.6006 99.7966 11.6756 99.7645 11.7828C99.7323 11.8846 99.7162 12.0374 99.7162 12.241V14.6607C99.7162 15.0466 99.6894 15.3788 99.6358 15.6575C99.5876 15.9308 99.5045 16.1666 99.3866 16.3649C99.2526 16.5954 99.0544 16.7776 98.7918 16.9116C98.5345 17.0456 98.2424 17.1125 97.9155 17.1125C97.326 17.1125 96.8758 16.9678 96.565 16.6784C96.3292 16.4587 96.1711 16.2095 96.0907 15.9308C96.0103 15.6522 95.9701 15.2368 95.9701 14.6848V12.1606C95.9701 11.957 95.954 11.8096 95.9219 11.7185C95.8897 11.6274 95.8281 11.5657 95.737 11.5336C95.6512 11.5014 95.5119 11.48 95.319 11.4693V11.3085C95.5441 11.3246 95.8871 11.3326 96.3479 11.3326C96.782 11.3326 97.1224 11.3246 97.3689 11.3085V11.4693C97.1759 11.48 97.0339 11.5014 96.9428 11.5336C96.8571 11.5657 96.7981 11.6274 96.766 11.7185C96.7338 11.8096 96.7177 11.957 96.7177 12.1606V14.8215C96.7177 15.2502 96.7472 15.6066 96.8062 15.8906C96.8651 16.1747 96.9857 16.4024 97.1679 16.5739C97.3555 16.7454 97.6288 16.8312 97.9879 16.8312C98.5559 16.8312 98.9552 16.649 99.1857 16.2845C99.4161 15.9201 99.5313 15.4083 99.5313 14.7491V12.241C99.5313 11.9516 99.4777 11.7533 99.3706 11.6461C99.2687 11.539 99.0785 11.48 98.7998 11.4693V11.3085C98.9927 11.3246 99.266 11.3326 99.6198 11.3326C99.9413 11.3326 100.191 11.3246 100.367 11.3085V11.4693ZM105.083 16.4292C105.185 16.5847 105.271 16.6892 105.341 16.7428C105.41 16.7963 105.504 16.8258 105.622 16.8312V17C105.257 16.9786 105.027 16.9678 104.931 16.9678C104.754 16.9678 104.376 16.9786 103.797 17V16.8312C104.006 16.8312 104.153 16.8231 104.239 16.8071C104.325 16.7856 104.368 16.7508 104.368 16.7026C104.368 16.6597 104.349 16.6115 104.312 16.5579L102.937 14.4517L102.069 15.7459C101.865 16.0514 101.763 16.2872 101.763 16.4534C101.763 16.5927 101.825 16.6918 101.948 16.7508C102.071 16.8044 102.248 16.8339 102.479 16.8392V17C102.173 16.9839 101.811 16.9759 101.393 16.9759C101.099 16.9759 100.871 16.9839 100.71 17V16.8392C100.871 16.8178 101.024 16.7454 101.168 16.6222C101.318 16.4989 101.468 16.3247 101.619 16.0997L102.832 14.2909L101.257 11.8793C101.155 11.7238 101.069 11.6193 101 11.5657C100.93 11.5122 100.836 11.4827 100.718 11.4773V11.3085C101.083 11.3299 101.313 11.3407 101.41 11.3407C101.769 11.3407 102.146 11.3299 102.543 11.3085V11.4773C102.35 11.4773 102.211 11.4934 102.125 11.5256C102.045 11.5523 102.004 11.5952 102.004 11.6542C102.004 11.6863 102.029 11.7453 102.077 11.831L103.331 13.7443L104.119 12.5626C104.349 12.2249 104.464 11.9677 104.464 11.7908C104.464 11.6783 104.413 11.5979 104.312 11.5497C104.21 11.5014 104.054 11.4746 103.845 11.4693V11.3085C104.151 11.3246 104.459 11.3326 104.77 11.3326C105.065 11.3326 105.292 11.3246 105.453 11.3085V11.4693C105.292 11.4907 105.137 11.5631 104.987 11.6863C104.842 11.8096 104.695 11.9838 104.545 12.2089L103.419 13.889L105.083 16.4292ZM110.13 15.971C110.13 16.2765 110.149 16.6195 110.186 17C109.822 16.9839 109.208 16.9759 108.345 16.9759C107.316 16.9759 106.539 16.9839 106.014 17V16.8392C106.207 16.8285 106.346 16.8071 106.432 16.7749C106.523 16.7428 106.585 16.6811 106.617 16.59C106.649 16.4989 106.665 16.3515 106.665 16.1479V12.1606C106.665 11.957 106.649 11.8096 106.617 11.7185C106.585 11.6274 106.523 11.5657 106.432 11.5336C106.346 11.5014 106.207 11.48 106.014 11.4693V11.3085C106.539 11.3246 107.316 11.3326 108.345 11.3326C109.133 11.3326 109.693 11.3246 110.025 11.3085C109.988 11.6622 109.969 11.9784 109.969 12.2571C109.969 12.4661 109.977 12.6322 109.993 12.7555H109.808C109.771 12.4071 109.723 12.1499 109.664 11.9838C109.605 11.8123 109.506 11.689 109.366 11.614C109.227 11.5336 109.015 11.4934 108.731 11.4934H108.064C107.871 11.4934 107.729 11.5095 107.638 11.5416C107.552 11.5684 107.493 11.6274 107.461 11.7185C107.429 11.8096 107.413 11.957 107.413 12.1606V14.0578H107.943C108.131 14.0578 108.276 14.0149 108.377 13.9292C108.479 13.8381 108.546 13.7336 108.578 13.6157C108.616 13.4924 108.645 13.3397 108.667 13.1574L108.691 12.9967H108.876C108.86 13.2217 108.852 13.4736 108.852 13.7523V14.1382C108.852 14.4115 108.868 14.792 108.9 15.2797H108.715C108.71 15.2422 108.694 15.1136 108.667 14.8938C108.64 14.6687 108.565 14.4999 108.442 14.3874C108.324 14.2748 108.158 14.2186 107.943 14.2186H107.413V16.1479C107.413 16.3515 107.429 16.4989 107.461 16.59C107.493 16.6811 107.552 16.7428 107.638 16.7749C107.729 16.8017 107.871 16.8151 108.064 16.8151H108.651C108.983 16.8151 109.235 16.7722 109.406 16.6865C109.583 16.5954 109.712 16.4534 109.792 16.2604C109.873 16.0621 109.932 15.7727 109.969 15.3922H110.154C110.138 15.5369 110.13 15.7299 110.13 15.971Z" fill="black"/>
<path d="M1.11651 19.6505H110.757V23L1.11651 19.6505Z" fill="black"/>
</svg>
